<svg id="SvgjsSvg1001" width="288" height="288" xmlns="http://www.w3.org/2000/svg" version="1.1" xmlns:xlink="http://www.w3.org/1999/xlink" xmlns:svgjs="http://svgjs.com/svgjs">
    <defs id="SvgjsDefs1002"></defs>
        <g id="SvgjsG1008">
        <svg xmlns="http://www.w3.org/2000/svg" viewBox="0 0 1000 1000" width="288" height="288">
            <path fill="#ffffff" fill-rule="evenodd" d="M 202 67.465 C 201.175 67.671, 196.900 68.396, 192.500 69.075 C 176.090 71.608, 156.803 79.785, 143.152 89.998 C 132.934 97.643, 107.532 123.759, 101.813 132.500 C 78.509 168.120, 75.390 212.733, 93.555 250.652 C 99.077 262.180, 106.077 271.753, 119.024 285.485 C 125.703 292.568, 134.551 302.894, 138.687 308.432 C 166.305 345.414, 182.391 389.090, 185.486 435.500 C 185.816 440.450, 186.730 493.100, 187.518 552.500 C 189.072 669.789, 188.878 666.444, 194.783 677.384 C 204.336 695.083, 228.502 705.704, 247.632 700.610 C 257.981 697.854, 264.201 693.323, 296.104 665.294 C 330.386 635.177, 335.249 631.878, 347.910 630.158 C 352.360 629.553, 370.548 630.138, 407.410 632.069 C 461.656 634.912, 465.551 634.878, 473.695 631.490 C 487.814 625.618, 493.031 617.150, 497.413 593 C 506.255 544.263, 543.857 501.215, 592.034 484.679 C 596.178 483.256, 605.390 480.934, 612.505 479.518 C 619.621 478.103, 627.784 475.872, 630.646 474.562 C 641.261 469.702, 649.108 459.392, 650.925 447.920 C 651.548 443.987, 650.677 428.236, 647.751 390.500 C 644.474 348.249, 643.911 337.352, 644.748 332.376 C 646.807 320.129, 649.743 315.924, 680.974 280.500 C 696.975 262.350, 711.394 245.522, 713.016 243.105 C 722.403 229.116, 723.345 210.482, 715.453 194.907 C 710.064 184.272, 697.822 174.289, 686 170.889 C 682.432 169.863, 656.137 169.585, 559 169.547 L 436.500 169.500 424.500 167.262 C 390.169 160.860, 361.267 149.714, 335.500 132.942 C 322.515 124.490, 314.583 118.225, 299 104.117 C 284.398 90.896, 277.835 86.118, 266.003 80.093 C 249.319 71.598, 235.424 68.094, 216 67.483 C 209.125 67.267, 202.825 67.259, 202 67.465 M 765.637 277.426 C 760.924 279.154, 757.869 281.956, 748.445 293.195 C 727.218 318.512, 721.906 341.069, 729.405 374.047 C 733.205 390.755, 735.240 394.549, 742.347 398.176 C 746.101 400.092, 748.396 400.132, 836.847 399.820 L 927.500 399.500 931.749 397.230 C 940.752 392.421, 944.503 380.801, 940.033 371.568 C 938.820 369.063, 936.629 366.169, 935.164 365.136 C 933.699 364.103, 897.850 343.887, 855.500 320.212 C 773.306 274.262, 773.723 274.461, 765.637 277.426 M 650.374 517.915 C 634.473 524.328, 612.745 535.409, 601.500 542.841 C 571.249 562.833, 549.390 591.586, 532.578 633.500 C 525.013 652.360, 525.353 660.394, 534 667.053 C 538.010 670.141, 766.192 779.584, 772.941 781.656 C 778.425 783.340, 782.640 782.614, 788.327 779.008 C 793.462 775.751, 797.012 769.359, 796.976 763.434 C 796.963 761.270, 795.904 757.025, 794.623 754 C 789.027 740.787, 683.602 522.192, 681.474 519.391 C 675.452 511.462, 667.332 511.076, 650.374 517.915 M 346.500 713.499 C 330.262 717.127, 316.720 724.976, 300.461 740.185 C 289.837 750.124, 288.396 756.981, 294.455 768.775 C 296.355 772.474, 316.297 808.349, 338.771 848.499 C 385.250 931.534, 382.442 927.565, 394.604 927.427 C 400.037 927.365, 401.679 926.900, 405.179 924.427 C 407.457 922.817, 410.262 919.700, 411.411 917.500 C 413.466 913.566, 413.513 912.036, 414.294 824.500 C 414.911 755.333, 414.815 734.513, 413.864 731.070 C 413.129 728.411, 411.157 725.157, 408.934 722.934 C 405.671 719.671, 403.934 718.922, 394.365 716.654 C 373.498 711.709, 358.839 710.743, 346.500 713.499" class="colora43a3a svgShape"></path>
        </svg>
    </g>
</svg>